<mxfile host="app.diagrams.net" modified="2024-03-02T14:11:49.861Z" agent="Mozilla/5.0 (Windows NT 10.0; Win64; x64; rv:123.0) Gecko/20100101 Firefox/123.0" version="24.0.0" etag="U-SRZajHZ8rT5qhvTdzM" type="github">
  <diagram name="Page-1" id="cD_hOYNCvGRa4vPHuCRC">
    <mxGraphModel>
      <root>
        <mxCell id="0" />
        <mxCell id="1" parent="0" />
      </root>
    </mxGraphModel>
  </diagram>
</mxfile>
